# xmcd
#
# Track frame offsets:
#	150
#	11790
#	24887
#	38957
#	50305
#	66722
#	77752
#	91687
#	106107
#	115650
#	133662
#	146915
#	160192
#	171742
#	184867
#	194640
#	210000
#	224632
#	237622
#	252235
#	265340
#	282865
#
# Disc length: 3942 seconds
#
# Revision: 1
# Processed by: cddbd v1.5.2PL0 Copyright (c) Steve Scherf et al.
# Submitted via: audiograbber 1.83.01
#
DISCID=490f6416
DTITLE=Crystal Gayle - We Must Believe In Magic/When I Dream
DYEAR=1977
DGENRE=Country
TTITLE0=Don't It Make My Brown Eyes Blue
TTITLE1=I Wanna Come Back To You
TTITLE2=River Road
TTITLE3=It's All Right With Me
TTITLE4=Going Down Slow
TTITLE5=All I Wanna Do In Life
TTITLE6=Make A Dream Come True
TTITLE7=Green Door
TTITLE8=Funny
TTITLE9=We Must Believe In Magic
TTITLE10=Why Have You Left The One You Left For Me
TTITLE11=Heart Mender
TTITLE12=Hello I Love You
TTITLE13=Talking In Your Sleep
TTITLE14=Paintin' This Old Town Blue
TTITLE15=Where I Dream
TTITLE16=Don't Treat Me Like A Stranger
TTITLE17=Too Good To Throw Away
TTITLE18=Cry Me A River
TTITLE19=Wayward Wind
TTITLE20=Someday Soon
TTITLE21=I Still Miss Someone
EXTD=
EXTT0=
EXTT1=
EXTT2=
EXTT3=
EXTT4=
EXTT5=
EXTT6=
EXTT7=
EXTT8=
EXTT9=
EXTT10=
EXTT11=
EXTT12=
EXTT13=
EXTT14=
EXTT15=
EXTT16=
EXTT17=
EXTT18=
EXTT19=
EXTT20=
EXTT21=
PLAYORDER=
